<?xml version="1.0" encoding="UTF-8" standalone="no"?>
<!-- Created with Inkscape (http://www.inkscape.org/) -->

<svg
   version="1.1"
   id="svg2"
   width="1122.52"
   height="793.70001"
   viewBox="0 0 1122.52 793.70001"
   sodipodi:docname="diners-club-seeklogo.ai"
   xmlns:inkscape="http://www.inkscape.org/namespaces/inkscape"
   xmlns:sodipodi="http://sodipodi.sourceforge.net/DTD/sodipodi-0.dtd"
   xmlns="http://www.w3.org/2000/svg"
   xmlns:svg="http://www.w3.org/2000/svg">
  <defs
     id="defs6">
    <clipPath
       clipPathUnits="userSpaceOnUse"
       id="clipPath16">
      <path
         d="M 0,595.275 H 841.89 V 0 H 0 Z"
         id="path14" />
    </clipPath>
  </defs>
  <sodipodi:namedview
     id="namedview4"
     pagecolor="#ffffff"
     bordercolor="#000000"
     borderopacity="0.25"
     inkscape:showpageshadow="2"
     inkscape:pageopacity="0.0"
     inkscape:pagecheckerboard="0"
     inkscape:deskcolor="#d1d1d1" />
  <g
     id="g8"
     inkscape:groupmode="layer"
     inkscape:label="diners-club-seeklogo"
     transform="matrix(1.3333333,0,0,-1.3333333,0,793.7)">
    <g
       id="g10">
      <g
         id="g12"
         clip-path="url(#clipPath16)">
        <g
           id="g18"
           transform="translate(599.9395,298.2021)">
          <path
             d="m 0,0 v -0.982 h 0.733 c 0.193,0 0.347,0.043 0.454,0.128 0.106,0.086 0.161,0.206 0.161,0.364 0,0.166 -0.066,0.291 -0.2,0.37 C 1.012,-0.04 0.807,0 0.519,0 Z m -0.549,0.412 h 1.146 c 0.415,0 0.736,-0.078 0.965,-0.23 0.232,-0.155 0.344,-0.37 0.344,-0.646 0,-0.195 -0.065,-0.372 -0.196,-0.534 C 1.587,-1.16 1.419,-1.265 1.217,-1.313 L 1.896,-2.774 H 1.313 l -0.637,1.38 H 0 v -1.38 h -0.549 z m 1.2,0.915 c -0.696,0 -1.292,-0.245 -1.782,-0.738 -0.487,-0.491 -0.731,-1.084 -0.731,-1.779 0,-0.696 0.244,-1.287 0.731,-1.774 0.486,-0.487 1.083,-0.726 1.782,-0.726 0.687,0 1.28,0.247 1.769,0.74 0.487,0.494 0.734,1.079 0.734,1.76 0,0.695 -0.247,1.288 -0.734,1.779 C 1.931,1.082 1.338,1.327 0.651,1.327 m -2.927,-2.515 c 0,0.811 0.287,1.501 0.86,2.07 0.569,0.57 1.263,0.854 2.067,0.854 0.799,0 1.485,-0.284 2.054,-0.854 0.572,-0.569 0.86,-1.259 0.86,-2.07 0,-0.797 -0.288,-1.481 -0.86,-2.057 -0.569,-0.569 -1.255,-0.857 -2.054,-0.857 -0.804,0 -1.498,0.285 -2.067,0.853 -0.573,0.57 -0.86,1.258 -0.86,2.061"
             style="fill:#231f20;fill-opacity:1;fill-rule:nonzero;stroke:none"
             id="path20" />
        </g>
        <g
           id="g22"
           transform="translate(593.5176,273.4551)">
          <path
             d="m 0,0 c -1.109,-1.549 -2.234,-2.76 -3.373,-3.634 -1.139,-0.878 -2.139,-1.317 -3.002,-1.317 -0.646,0 -1.157,0.185 -1.533,0.555 -0.378,0.372 -0.566,0.885 -0.566,1.543 0,0.724 0.302,2.177 0.905,4.355 l 0.061,0.246 5.349,19.706 c 0.055,0.22 0.096,0.425 0.124,0.616 0.026,0.194 0.04,0.365 0.04,0.515 0,0.631 -0.171,1.057 -0.514,1.276 -0.343,0.22 -1.062,0.343 -2.16,0.37 l 0.062,0.768 c 1.865,0.208 3.752,0.497 5.657,0.871 0.494,0.096 0.775,0.144 0.843,0.144 0.165,0 0.288,-0.031 0.371,-0.093 0.082,-0.064 0.123,-0.155 0.123,-0.281 0,-0.109 -0.014,-0.242 -0.041,-0.392 C 2.318,25.095 2.277,24.944 2.222,24.792 L -4.422,0.762 c -0.137,-0.494 -0.243,-0.94 -0.318,-1.338 -0.076,-0.399 -0.114,-0.665 -0.114,-0.803 0,-0.329 0.065,-0.572 0.196,-0.729 0.13,-0.158 0.318,-0.237 0.565,-0.237 0.411,0 0.87,0.22 1.378,0.658 0.508,0.439 1.187,1.213 2.037,2.325 z"
             style="fill:#231f20;fill-opacity:1;fill-rule:nonzero;stroke:none"
             id="path24" />
        </g>
        <g
           id="g26"
           transform="translate(576.877,287.4561)">
          <path
             d="m 0,0 c -0.96,0 -1.898,-0.374 -2.814,-1.12 -0.918,-0.748 -1.79,-1.861 -2.609,-3.344 -0.864,-1.566 -1.543,-3.191 -2.033,-4.878 -0.493,-1.69 -0.74,-3.225 -0.74,-4.611 0,-0.796 0.161,-1.416 0.483,-1.861 0.322,-0.447 0.764,-0.669 1.323,-0.669 0.782,0 1.601,0.38 2.455,1.141 0.857,0.761 1.792,1.945 2.804,3.549 1.056,1.663 1.865,3.287 2.434,4.878 0.569,1.595 0.854,3.027 0.854,4.303 0,0.864 -0.185,1.515 -0.555,1.954 C 1.231,-0.22 0.696,0 0,0 m 6.736,-14.035 c -1.151,-1.646 -2.231,-2.89 -3.246,-3.734 -1.011,-0.843 -1.936,-1.264 -2.772,-1.264 -0.56,0 -0.989,0.161 -1.283,0.483 -0.295,0.321 -0.443,0.806 -0.443,1.449 0,0.413 0.1,1.042 0.299,1.893 0.199,0.851 0.579,2.201 1.139,4.053 -1.701,-2.825 -3.244,-4.844 -4.629,-6.058 -1.385,-1.214 -2.791,-1.82 -4.217,-1.82 -1.125,0 -1.995,0.393 -2.612,1.186 -0.618,0.787 -0.926,1.909 -0.926,3.366 0,1.742 0.333,3.538 0.998,5.393 0.665,1.854 1.594,3.555 2.786,5.105 1.289,1.675 2.62,2.949 3.991,3.811 1.371,0.864 2.737,1.296 4.093,1.296 0.852,0 1.543,-0.191 2.085,-0.578 0.542,-0.389 0.892,-0.933 1.042,-1.636 l 0.532,1.831 h 3.206 l -3.82,-13.624 c -0.191,-0.7 -0.34,-1.296 -0.442,-1.783 -0.103,-0.487 -0.155,-0.856 -0.155,-1.105 0,-0.151 0.069,-0.284 0.206,-0.401 0.137,-0.116 0.309,-0.174 0.514,-0.174 0.313,0 0.709,0.22 1.189,0.658 0.481,0.439 1.101,1.163 1.87,2.167 z"
             style="fill:#231f20;fill-opacity:1;fill-rule:nonzero;stroke:none"
             id="path28" />
        </g>
        <g
           id="g30"
           transform="translate(543.3799,268.8057)">
          <path
             d="m 0,0 4.059,13.707 c 0.178,0.59 0.316,1.107 0.404,1.549 0.09,0.446 0.131,0.799 0.131,1.06 0,0.491 -0.182,0.843 -0.545,1.055 -0.364,0.213 -0.991,0.319 -1.883,0.319 h -0.35 l 0.124,0.768 c 2.112,0.221 4.193,0.573 6.237,1.063 0.41,0.096 0.65,0.144 0.719,0.144 0.083,0 0.141,-0.027 0.175,-0.082 0.034,-0.055 0.052,-0.165 0.052,-0.33 C 9.108,19.212 9.088,19.137 9.061,19.021 9.033,18.904 8.979,18.72 8.896,18.458 L 6.548,10.954 c 2.015,2.78 3.949,4.912 5.801,6.4 1.851,1.485 3.483,2.229 4.895,2.229 0.781,0 1.385,-0.199 1.811,-0.597 0.424,-0.397 0.636,-0.966 0.636,-1.704 0,-0.466 -0.05,-0.997 -0.153,-1.594 -0.103,-0.592 -0.251,-1.227 -0.443,-1.899 l -2.4,-8.262 C 16.489,4.827 16.35,4.301 16.274,3.95 16.199,3.6 16.16,3.319 16.16,3.101 c 0,-0.317 0.076,-0.56 0.228,-0.732 0.15,-0.172 0.366,-0.258 0.653,-0.258 0.425,0 0.903,0.293 1.427,0.876 0.528,0.582 1.141,1.485 1.838,2.705 L 20.98,5.198 C 19.938,3.247 18.906,1.804 17.879,0.865 c -1.025,-0.944 -2.082,-1.413 -3.165,-1.413 -0.655,0 -1.172,0.203 -1.549,0.607 -0.378,0.404 -0.566,0.963 -0.566,1.68 0,0.316 0.048,0.72 0.144,1.213 0.096,0.494 0.246,1.101 0.455,1.815 l 2.202,8.096 c 0.192,0.768 0.329,1.375 0.411,1.822 0.083,0.445 0.124,0.804 0.124,1.079 0,0.453 -0.089,0.781 -0.267,0.987 -0.18,0.206 -0.453,0.31 -0.823,0.31 -0.686,0 -1.554,-0.419 -2.607,-1.256 C 11.189,14.968 10.063,13.789 8.854,12.267 7.676,10.769 6.668,9.1 5.832,7.256 4.992,5.411 4.189,2.99 3.421,0 Z"
             style="fill:#231f20;fill-opacity:1;fill-rule:nonzero;stroke:none"
             id="path32" />
        </g>
        <g
           id="g34"
           transform="translate(536.1865,287.5381)">
          <path
             d="m 0,0 c -1.042,0 -2.09,-0.394 -3.153,-1.182 -1.063,-0.789 -2.043,-1.911 -2.949,-3.364 -0.85,-1.385 -1.522,-2.883 -2.023,-4.493 -0.501,-1.612 -0.75,-3.104 -0.75,-4.476 0,-1.425 0.312,-2.532 0.937,-3.321 0.62,-0.788 1.501,-1.183 2.639,-1.183 0.904,0 1.817,0.285 2.742,0.854 0.926,0.568 1.762,1.368 2.516,2.396 1.084,1.455 1.955,3.13 2.619,5.029 0.665,1.9 0.998,3.632 0.998,5.194 0,1.483 -0.305,2.609 -0.915,3.384 C 2.051,-0.388 1.166,0 0,0 m -12.633,-12.335 c 0,1.413 0.295,2.838 0.885,4.278 0.59,1.441 1.447,2.815 2.571,4.119 1.385,1.603 2.901,2.848 4.546,3.736 1.646,0.885 3.27,1.327 4.874,1.327 2.14,0 3.848,-0.628 5.123,-1.886 1.276,-1.254 1.912,-2.93 1.912,-5.033 0,-1.343 -0.287,-2.734 -0.863,-4.175 -0.576,-1.44 -1.392,-2.807 -2.448,-4.096 -1.371,-1.65 -2.905,-2.925 -4.597,-3.831 -1.694,-0.905 -3.404,-1.357 -5.133,-1.357 -2.07,0 -3.733,0.631 -4.988,1.893 -1.254,1.261 -1.882,2.937 -1.882,5.025"
             style="fill:#231f20;fill-opacity:1;fill-rule:nonzero;stroke:none"
             id="path36" />
        </g>
        <g
           id="g38"
           transform="translate(519.8545,295.6465)">
          <path
             d="M 0,0 C 0,0.562 0.223,1.064 0.668,1.508 1.111,1.954 1.608,2.177 2.156,2.177 2.747,2.177 3.257,1.96 3.687,1.529 4.117,1.099 4.334,0.59 4.334,0 c 0,-0.617 -0.21,-1.128 -0.627,-1.539 -0.415,-0.412 -0.934,-0.617 -1.551,-0.617 -0.575,0 -1.08,0.212 -1.508,0.637 C 0.216,-1.094 0,-0.59 0,0 m -4.433,-8.904 0.165,0.714 c 2.002,0.236 3.953,0.561 5.845,0.98 0.384,0.097 0.604,0.144 0.658,0.144 0.137,0 0.247,-0.047 0.329,-0.144 0.082,-0.096 0.124,-0.223 0.124,-0.378 0,-0.096 -0.013,-0.201 -0.042,-0.318 C 2.62,-8.025 2.578,-8.173 2.523,-8.354 l -4.048,-13.477 c -0.11,-0.398 -0.192,-0.731 -0.246,-0.998 -0.055,-0.267 -0.083,-0.486 -0.083,-0.665 0,-0.398 0.079,-0.703 0.236,-0.915 0.158,-0.213 0.371,-0.32 0.644,-0.32 0.412,0 0.937,0.286 1.575,0.854 0.637,0.566 1.319,1.367 2.045,2.393 l 0.638,-0.634 c -1.179,-1.68 -2.338,-2.955 -3.478,-3.825 -1.139,-0.875 -2.216,-1.31 -3.234,-1.31 -0.672,0 -1.182,0.194 -1.532,0.586 -0.35,0.394 -0.525,0.967 -0.525,1.721 0,0.386 0.051,0.84 0.154,1.372 0.103,0.527 0.291,1.264 0.565,2.214 l 2.703,9.558 0.02,0.062 c 0.182,0.695 0.272,1.154 0.272,1.375 0,0.534 -0.197,0.912 -0.591,1.131 -0.391,0.219 -1.079,0.328 -2.071,0.328"
             style="fill:#231f20;fill-opacity:1;fill-rule:nonzero;stroke:none"
             id="path40" />
        </g>
        <g
           id="g42"
           transform="translate(505.4795,286.5244)">
          <path
             d="m 0,0 0.187,0.891 c 1.288,0.233 2.519,0.846 3.699,1.835 1.178,0.987 2.316,2.375 3.41,4.158 H 8.263 L 6.662,1.37 h 3.575 L 9.908,0 H 6.333 L 3.004,-12.568 c -0.124,-0.451 -0.22,-0.855 -0.288,-1.21 -0.069,-0.358 -0.104,-0.635 -0.104,-0.84 0,-0.276 0.073,-0.494 0.217,-0.659 0.144,-0.165 0.325,-0.246 0.545,-0.246 0.366,0 0.819,0.246 1.355,0.74 0.534,0.494 1.178,1.258 1.933,2.296 l 0.634,-0.716 c -1.135,-1.608 -2.229,-2.804 -3.278,-3.589 -1.048,-0.782 -2.08,-1.173 -3.091,-1.173 -0.673,0 -1.177,0.178 -1.513,0.535 -0.336,0.356 -0.504,0.895 -0.504,1.611 0,0.316 0.028,0.655 0.083,1.018 0.055,0.366 0.144,0.747 0.268,1.146 L 2.922,0 Z"
             style="fill:#231f20;fill-opacity:1;fill-rule:nonzero;stroke:none"
             id="path44" />
        </g>
        <g
           id="g46"
           transform="translate(496.0088,287.4561)">
          <path
             d="m 0,0 c -0.961,0 -1.9,-0.374 -2.815,-1.12 -0.919,-0.748 -1.788,-1.861 -2.61,-3.344 -0.863,-1.566 -1.542,-3.191 -2.033,-4.878 -0.494,-1.69 -0.74,-3.225 -0.74,-4.611 0,-0.796 0.16,-1.416 0.483,-1.861 0.322,-0.447 0.761,-0.669 1.324,-0.669 0.782,0 1.6,0.38 2.454,1.141 0.857,0.761 1.79,1.945 2.804,3.549 1.057,1.663 1.866,3.287 2.435,4.878 0.569,1.595 0.853,3.027 0.853,4.303 0,0.864 -0.184,1.515 -0.555,1.954 C 1.229,-0.22 0.698,0 0,0 m 6.735,-14.035 c -1.148,-1.646 -2.231,-2.89 -3.246,-3.734 -1.01,-0.843 -1.937,-1.264 -2.774,-1.264 -0.558,0 -0.987,0.161 -1.281,0.483 -0.295,0.321 -0.443,0.806 -0.443,1.449 0,0.413 0.1,1.042 0.297,1.893 0.2,0.851 0.58,2.201 1.143,4.053 -1.704,-2.825 -3.246,-4.844 -4.631,-6.058 -1.386,-1.214 -2.791,-1.82 -4.218,-1.82 -1.124,0 -1.995,0.393 -2.612,1.186 -0.616,0.787 -0.925,1.909 -0.925,3.366 0,1.742 0.333,3.538 0.997,5.393 0.665,1.854 1.594,3.555 2.787,5.105 1.29,1.675 2.62,2.949 3.991,3.811 1.371,0.864 2.735,1.296 4.094,1.296 0.846,0 1.545,-0.191 2.087,-0.578 C 2.542,0.157 2.886,-0.387 3.036,-1.09 L 3.571,0.741 H 6.776 L 2.954,-12.883 c -0.192,-0.7 -0.336,-1.296 -0.438,-1.783 -0.103,-0.487 -0.155,-0.856 -0.155,-1.105 0,-0.151 0.069,-0.284 0.205,-0.401 0.138,-0.116 0.306,-0.174 0.511,-0.174 0.317,0 0.714,0.22 1.194,0.658 0.48,0.439 1.103,1.163 1.868,2.167 z"
             style="fill:#231f20;fill-opacity:1;fill-rule:nonzero;stroke:none"
             id="path48" />
        </g>
        <g
           id="g50"
           transform="translate(462.5068,268.8057)">
          <path
             d="m 0,0 4.059,13.707 c 0.178,0.59 0.316,1.107 0.404,1.549 0.09,0.446 0.131,0.799 0.131,1.06 0,0.491 -0.182,0.843 -0.546,1.055 -0.363,0.213 -0.99,0.319 -1.882,0.319 h -0.35 l 0.124,0.768 c 2.112,0.221 4.193,0.573 6.236,1.063 0.411,0.096 0.651,0.144 0.72,0.144 0.083,0 0.14,-0.027 0.175,-0.082 0.034,-0.055 0.051,-0.165 0.051,-0.33 C 9.108,19.212 9.088,19.137 9.061,19.021 9.034,18.904 8.979,18.72 8.896,18.458 L 6.548,10.954 c 2.015,2.78 3.95,4.912 5.801,6.4 1.851,1.485 3.482,2.229 4.895,2.229 0.781,0 1.385,-0.199 1.81,-0.597 0.425,-0.397 0.637,-0.966 0.637,-1.704 0,-0.466 -0.051,-0.997 -0.154,-1.594 -0.102,-0.592 -0.251,-1.227 -0.442,-1.899 l -2.4,-8.262 C 16.489,4.827 16.35,4.301 16.274,3.95 16.199,3.6 16.16,3.319 16.16,3.101 c 0,-0.317 0.076,-0.56 0.227,-0.732 0.151,-0.172 0.367,-0.258 0.655,-0.258 0.424,0 0.901,0.293 1.426,0.876 0.528,0.582 1.141,1.485 1.838,2.705 L 20.98,5.198 C 19.938,3.247 18.906,1.804 17.879,0.865 c -1.025,-0.944 -2.082,-1.413 -3.166,-1.413 -0.654,0 -1.171,0.203 -1.548,0.607 -0.377,0.404 -0.566,0.963 -0.566,1.68 0,0.316 0.048,0.72 0.144,1.213 0.096,0.494 0.246,1.101 0.455,1.815 l 2.202,8.096 c 0.192,0.768 0.329,1.375 0.411,1.822 0.082,0.445 0.124,0.804 0.124,1.079 0,0.453 -0.089,0.781 -0.268,0.987 -0.179,0.206 -0.453,0.31 -0.822,0.31 -0.687,0 -1.554,-0.419 -2.607,-1.256 C 11.189,14.968 10.062,13.789 8.855,12.267 7.675,10.769 6.667,9.1 5.831,7.256 4.992,5.411 4.188,2.99 3.421,0 Z"
             style="fill:#231f20;fill-opacity:1;fill-rule:nonzero;stroke:none"
             id="path52" />
        </g>
        <g
           id="g54"
           transform="translate(450.0928,268.833)">
          <path
             d="m 0,0 3.575,12.864 c 0.206,0.726 0.364,1.364 0.474,1.912 0.109,0.553 0.164,0.963 0.164,1.239 0,0.565 -0.178,0.957 -0.535,1.175 -0.356,0.219 -1.075,0.35 -2.162,0.391 l 0.123,0.795 c 1.511,0.22 3.675,0.628 6.489,1.222 0.193,0 0.312,-0.025 0.36,-0.074 0.049,-0.047 0.073,-0.147 0.073,-0.298 0,-0.057 -0.011,-0.14 -0.032,-0.249 -0.02,-0.111 -0.051,-0.238 -0.091,-0.374 l -2.123,-7.59 c 1.649,2.839 3.082,4.96 4.306,6.363 1.224,1.398 2.267,2.098 3.129,2.098 0.577,0 1.032,-0.175 1.361,-0.525 0.329,-0.353 0.494,-0.834 0.494,-1.454 0,-0.74 -0.226,-1.367 -0.678,-1.885 -0.456,-0.514 -1.005,-0.772 -1.649,-0.772 -0.494,0 -0.915,0.158 -1.268,0.474 -0.35,0.315 -0.56,0.737 -0.628,1.257 C 9.596,14.746 8.039,12.452 6.706,9.696 5.375,6.939 4.262,3.707 3.37,0 Z"
             style="fill:#231f20;fill-opacity:1;fill-rule:nonzero;stroke:none"
             id="path56" />
        </g>
        <g
           id="g58"
           transform="translate(438.501,278.707)">
          <path
             d="m 0,0 c 2.71,0.37 4.855,1.2 6.442,2.489 1.587,1.289 2.383,2.832 2.383,4.628 0,0.535 -0.134,0.95 -0.401,1.245 C 8.153,8.656 7.779,8.804 7.3,8.804 5.994,8.804 4.64,7.981 3.237,6.336 1.835,4.689 0.758,2.578 0,0 m 9.871,-4.771 0.637,-0.642 C 9.161,-7.093 7.766,-8.33 6.319,-9.122 c -1.45,-0.793 -3.041,-1.19 -4.768,-1.19 -1.815,0 -3.234,0.583 -4.266,1.748 -1.028,1.166 -1.542,2.784 -1.542,4.855 0,1.595 0.343,3.191 1.028,4.796 0.686,1.604 1.663,3.089 2.924,4.447 1.317,1.384 2.733,2.468 4.242,3.249 1.507,0.781 2.952,1.173 4.323,1.173 1.261,0 2.231,-0.274 2.904,-0.823 0.671,-0.548 1.008,-1.33 1.008,-2.345 0,-1.875 -1.098,-3.51 -3.295,-4.902 C 6.679,0.497 3.665,-0.453 -0.164,-0.96 -0.273,-1.536 -0.353,-2.063 -0.4,-2.544 c -0.048,-0.479 -0.072,-0.877 -0.072,-1.193 0,-1.522 0.326,-2.66 0.981,-3.414 0.65,-0.755 1.628,-1.131 2.934,-1.131 0.988,0 2.033,0.298 3.133,0.898 1.098,0.596 2.197,1.467 3.295,2.613"
             style="fill:#231f20;fill-opacity:1;fill-rule:nonzero;stroke:none"
             id="path60" />
        </g>
        <g
           id="g62"
           transform="translate(425.6592,286.5244)">
          <path
             d="m 0,0 0.186,0.891 c 1.288,0.233 2.52,0.846 3.699,1.835 1.179,0.987 2.317,2.375 3.41,4.158 H 8.263 L 6.662,1.37 h 3.574 L 9.907,0 H 6.333 l -3.33,-12.568 c -0.123,-0.451 -0.22,-0.855 -0.287,-1.21 -0.07,-0.358 -0.104,-0.635 -0.104,-0.84 0,-0.276 0.073,-0.494 0.217,-0.659 0.144,-0.165 0.324,-0.246 0.545,-0.246 0.37,0 0.819,0.246 1.354,0.74 0.535,0.494 1.179,1.258 1.934,2.296 l 0.633,-0.716 c -1.134,-1.608 -2.228,-2.804 -3.276,-3.589 -1.049,-0.782 -2.082,-1.173 -3.093,-1.173 -0.672,0 -1.176,0.178 -1.513,0.535 -0.335,0.356 -0.503,0.895 -0.503,1.611 0,0.316 0.028,0.655 0.082,1.018 0.055,0.366 0.144,0.747 0.268,1.146 L 2.921,0 Z"
             style="fill:#231f20;fill-opacity:1;fill-rule:nonzero;stroke:none"
             id="path64" />
        </g>
        <g
           id="g66"
           transform="translate(402.4741,268.8057)">
          <path
             d="m 0,0 4.059,13.707 c 0.178,0.59 0.312,1.107 0.401,1.549 0.089,0.446 0.137,0.799 0.137,1.06 0,0.491 -0.185,0.843 -0.548,1.055 -0.364,0.213 -0.991,0.319 -1.882,0.319 h -0.35 l 0.123,0.768 c 2.112,0.221 4.193,0.573 6.236,1.063 0.411,0.096 0.651,0.144 0.72,0.144 0.083,0 0.141,-0.027 0.175,-0.082 0.034,-0.055 0.052,-0.165 0.052,-0.33 C 9.108,19.212 9.088,19.137 9.061,19.021 9.034,18.904 8.979,18.72 8.896,18.458 L 6.548,10.954 c 2.016,2.78 3.949,4.912 5.801,6.4 1.851,1.485 3.483,2.229 4.895,2.229 0.782,0 1.385,-0.199 1.81,-0.597 0.425,-0.397 0.638,-0.966 0.638,-1.704 0,-0.466 -0.052,-0.997 -0.154,-1.594 -0.103,-0.592 -0.251,-1.227 -0.443,-1.899 L 16.696,5.527 C 16.49,4.827 16.349,4.301 16.274,3.95 16.198,3.6 16.161,3.319 16.161,3.101 c 0,-0.317 0.075,-0.56 0.226,-0.732 0.147,-0.172 0.367,-0.258 0.655,-0.258 0.425,0 0.902,0.293 1.426,0.876 0.528,0.582 1.138,1.485 1.838,2.705 L 20.98,5.198 C 19.939,3.247 18.907,1.804 17.878,0.865 16.85,-0.079 15.797,-0.548 14.714,-0.548 c -0.655,0 -1.172,0.203 -1.549,0.607 -0.377,0.404 -0.566,0.963 -0.566,1.68 0,0.316 0.048,0.72 0.144,1.213 0.095,0.494 0.247,1.101 0.455,1.815 l 2.201,8.096 c 0.192,0.768 0.33,1.375 0.412,1.822 0.082,0.445 0.124,0.804 0.124,1.079 0,0.453 -0.09,0.781 -0.268,0.987 -0.178,0.206 -0.452,0.31 -0.823,0.31 -0.685,0 -1.552,-0.419 -2.602,-1.256 C 11.189,14.968 10.062,13.789 8.855,12.267 7.676,10.769 6.667,9.1 5.832,7.256 4.995,5.411 4.189,2.99 3.421,0 Z"
             style="fill:#231f20;fill-opacity:1;fill-rule:nonzero;stroke:none"
             id="path68" />
        </g>
        <g
           id="g70"
           transform="translate(387.5503,268.8057)">
          <path
             d="m 0,0 0.247,0.852 h 0.165 c 1.303,0 2.249,0.239 2.841,0.719 0.59,0.48 1.091,1.474 1.502,2.983 l 5.277,19.595 c 0.137,0.507 0.236,0.929 0.298,1.265 0.062,0.337 0.092,0.628 0.092,0.874 0,0.658 -0.24,1.143 -0.719,1.451 -0.48,0.308 -1.303,0.497 -2.469,0.566 l 0.226,0.85 H 19.226 L 19,28.305 h -0.329 c -1.207,0 -2.105,-0.251 -2.695,-0.751 -0.59,-0.5 -1.083,-1.485 -1.481,-2.951 L 9.229,5.026 C 9.106,4.533 9.013,4.104 8.952,3.74 8.89,3.377 8.859,3.072 8.859,2.825 c 0,-0.672 0.24,-1.159 0.72,-1.46 0.48,-0.302 1.289,-0.473 2.427,-0.513 L 11.8,0 Z"
             style="fill:#231f20;fill-opacity:1;fill-rule:nonzero;stroke:none"
             id="path72" />
        </g>
        <g
           id="g74"
           transform="translate(563.5586,304.1401)">
          <path
             d="m 0,0 c -0.055,-0.247 -0.096,-0.472 -0.124,-0.67 -0.026,-0.199 -0.04,-0.381 -0.04,-0.546 0,-0.576 0.243,-1.022 0.729,-1.337 0.488,-0.315 1.183,-0.472 2.088,-0.472 0.933,0 1.831,0.195 2.695,0.585 0.864,0.391 1.667,0.964 2.407,1.718 1.316,1.332 2.368,2.912 3.157,4.745 0.788,1.831 1.183,3.623 1.183,5.38 0,1.386 -0.346,2.492 -1.038,3.314 -0.694,0.823 -1.616,1.234 -2.767,1.234 -1.399,0 -2.665,-0.634 -3.795,-1.902 C 3.363,10.778 2.481,8.999 1.851,6.708 Z m 2.139,21.421 0.02,0.021 c 0.193,0.835 0.289,1.514 0.289,2.033 0,0.439 -0.148,0.744 -0.442,0.915 -0.295,0.172 -0.814,0.257 -1.553,0.257 H -0.164 L 0,25.416 c 1.399,0.096 2.805,0.325 4.217,0.688 1.412,0.364 2.139,0.546 2.18,0.546 0.137,0 0.24,-0.031 0.309,-0.093 0.067,-0.062 0.109,-0.161 0.122,-0.298 0,-0.083 -0.026,-0.213 -0.081,-0.391 0,-0.027 -0.007,-0.048 -0.021,-0.062 L 3.064,11.895 c 1.112,1.427 2.226,2.475 3.343,3.141 1.117,0.667 2.322,1 3.611,1 1.742,0 3.139,-0.566 4.196,-1.7 1.056,-1.132 1.583,-2.639 1.583,-4.52 C 15.797,8.334 15.5,6.844 14.903,5.35 14.306,3.851 13.439,2.439 12.297,1.107 10.815,-0.65 9.209,-1.961 7.47,-2.825 5.735,-3.691 3.859,-4.123 1.841,-4.123 c -1.535,0 -2.828,0.274 -3.871,0.825 -1.042,0.55 -1.564,1.201 -1.564,1.959 0,0.096 0.008,0.196 0.022,0.298 0.013,0.103 0.048,0.244 0.102,0.422 z"
             style="fill:#231f20;fill-opacity:1;fill-rule:nonzero;stroke:none"
             id="path76" />
        </g>
        <g
           id="g78"
           transform="translate(539.8379,318.3657)">
          <path
             d="M 0,0 0.123,0.768 C 1.975,0.987 3.864,1.289 5.784,1.673 6.277,1.783 6.552,1.837 6.606,1.837 6.785,1.837 6.922,1.81 7.019,1.755 7.114,1.7 7.162,1.625 7.162,1.529 7.162,1.405 7.148,1.256 7.121,1.085 7.094,0.913 7.052,0.725 6.997,0.519 L 3.662,-11.089 c -0.22,-0.78 -0.394,-1.467 -0.525,-2.064 -0.13,-0.595 -0.196,-1.016 -0.196,-1.262 0,-0.411 0.117,-0.74 0.35,-0.985 0.234,-0.246 0.543,-0.371 0.926,-0.371 0.84,0 1.818,0.504 2.935,1.513 1.118,1.008 2.371,2.512 3.757,4.515 1.083,1.549 2.009,3.239 2.781,5.07 0.767,1.831 1.406,3.864 1.913,6.099 h 3.273 l -3.623,-13.439 c -0.179,-0.684 -0.313,-1.265 -0.401,-1.745 -0.089,-0.48 -0.134,-0.834 -0.134,-1.068 0,-0.315 0.069,-0.55 0.206,-0.707 0.137,-0.158 0.349,-0.238 0.638,-0.238 0.425,0 0.927,0.275 1.514,0.822 0.583,0.547 1.231,1.356 1.945,2.424 l 0.575,-0.576 c -1.028,-1.689 -2.094,-2.978 -3.192,-3.864 -1.095,-0.886 -2.167,-1.328 -3.208,-1.328 -0.703,0 -1.227,0.181 -1.578,0.544 -0.349,0.366 -0.523,0.911 -0.523,1.639 0,0.425 0.051,0.924 0.154,1.493 0.103,0.571 0.257,1.212 0.463,1.927 l 1.32,4.496 c -2.254,-3.552 -4.242,-6.123 -5.973,-7.714 -1.728,-1.59 -3.38,-2.385 -4.957,-2.385 -0.827,0 -1.468,0.25 -1.926,0.751 -0.459,0.5 -0.691,1.203 -0.691,2.11 0,0.507 0.06,1.086 0.176,1.739 0.117,0.651 0.366,1.697 0.751,3.139 l 1.912,6.858 c 0.097,0.41 0.176,0.821 0.238,1.231 0.061,0.411 0.092,0.775 0.092,1.09 0,0.533 -0.175,0.895 -0.524,1.086 C 1.78,-0.096 1.069,0 0,0"
             style="fill:#231f20;fill-opacity:1;fill-rule:nonzero;stroke:none"
             id="path80" />
        </g>
        <g
           id="g82"
           transform="translate(538.2373,305.0498)">
          <path
             d="m 0,0 c -1.111,-1.547 -2.234,-2.76 -3.374,-3.636 -1.138,-0.876 -2.139,-1.314 -3.003,-1.314 -0.644,0 -1.155,0.185 -1.532,0.555 -0.377,0.369 -0.566,0.883 -0.566,1.541 0,0.726 0.301,2.179 0.905,4.355 l 0.062,0.248 5.348,19.705 c 0.056,0.22 0.097,0.426 0.123,0.617 0.028,0.192 0.041,0.364 0.041,0.515 0,0.63 -0.171,1.056 -0.513,1.275 -0.343,0.22 -1.063,0.343 -2.16,0.37 L -4.607,25 c 1.864,0.207 3.751,0.496 5.656,0.87 0.494,0.096 0.775,0.144 0.844,0.144 0.164,0 0.288,-0.031 0.371,-0.093 0.081,-0.063 0.122,-0.155 0.122,-0.281 0,-0.109 -0.014,-0.241 -0.041,-0.392 C 2.318,25.096 2.276,24.944 2.222,24.792 L -4.423,0.761 c -0.137,-0.493 -0.243,-0.939 -0.319,-1.336 -0.075,-0.398 -0.112,-0.666 -0.112,-0.803 0,-0.329 0.065,-0.573 0.196,-0.73 0.129,-0.158 0.318,-0.237 0.565,-0.237 0.411,0 0.87,0.22 1.378,0.659 0.507,0.438 1.186,1.213 2.036,2.324 z"
             style="fill:#231f20;fill-opacity:1;fill-rule:nonzero;stroke:none"
             id="path84" />
        </g>
        <g
           id="g86"
           transform="translate(527.0029,306.8467)">
          <path
             d="m 0,0 0.782,-0.7 c -1.742,-2.18 -3.6,-3.787 -5.579,-4.823 -1.974,-1.036 -4.154,-1.553 -6.54,-1.553 -3.703,0 -6.648,1.069 -8.828,3.209 -2.181,2.137 -3.271,5.017 -3.271,8.636 0,2.029 0.408,4.042 1.224,6.037 0.816,1.993 2.02,3.896 3.61,5.706 1.911,2.165 4.06,3.845 6.453,5.038 2.392,1.193 4.809,1.789 7.25,1.789 1.398,0 2.845,-0.226 4.333,-0.678 1.488,-0.453 2.321,-0.68 2.5,-0.68 0.273,0 0.541,0.094 0.802,0.278 0.26,0.186 0.481,0.45 0.659,0.793 H 4.237 L 2.51,14.399 H 1.645 c 0,0.164 0.004,0.342 0.01,0.534 0.008,0.192 0.011,0.448 0.011,0.765 0,2.006 -0.531,3.547 -1.594,4.625 -1.063,1.078 -2.582,1.618 -4.556,1.618 -1.687,0 -3.339,-0.433 -4.957,-1.296 -1.619,-0.864 -3.134,-2.125 -4.546,-3.783 -1.44,-1.687 -2.548,-3.596 -3.323,-5.727 -0.773,-2.133 -1.162,-4.344 -1.162,-6.634 0,-3.015 0.741,-5.398 2.222,-7.144 1.481,-1.749 3.497,-2.623 6.047,-2.623 1.839,0 3.614,0.442 5.327,1.327 C -3.161,-3.055 -1.536,-1.742 0,0"
             style="fill:#231f20;fill-opacity:1;fill-rule:nonzero;stroke:none"
             id="path88" />
        </g>
        <g
           id="g90"
           transform="translate(479.9092,300.1475)">
          <path
             d="M 0,0 0.925,6.918 1.648,6.877 C 1.73,4.968 2.143,3.494 2.886,2.45 3.626,1.406 4.624,0.885 5.875,0.885 c 1.002,0 1.824,0.339 2.462,1.018 0.641,0.679 0.96,1.561 0.96,2.645 0,0.961 -0.658,2.306 -1.971,4.034 C 7.157,8.787 7.034,8.946 6.952,9.056 6.856,9.193 6.705,9.39 6.499,9.65 c -1.737,2.291 -2.605,4.115 -2.605,5.471 0,1.412 0.498,2.586 1.495,3.526 0.993,0.939 2.242,1.409 3.74,1.409 0.795,0 1.68,-0.149 2.646,-0.448 0.971,-0.298 1.564,-0.447 1.784,-0.447 0.246,0 0.462,0.072 0.648,0.218 0.184,0.145 0.294,0.324 0.321,0.531 h 0.72 l -0.847,-6.272 h -0.719 c -0.196,1.777 -0.632,3.104 -1.314,3.98 -0.678,0.874 -1.61,1.313 -2.797,1.313 -0.685,0 -1.275,-0.233 -1.762,-0.698 -0.491,-0.466 -0.734,-1.026 -0.734,-1.683 0,-0.903 0.666,-2.21 1.992,-3.92 0.152,-0.206 0.27,-0.357 0.354,-0.451 0.164,-0.233 0.41,-0.562 0.739,-0.987 1.674,-2.182 2.51,-3.979 2.51,-5.391 0,-1.714 -0.607,-3.154 -1.823,-4.32 C 9.634,0.315 8.117,-0.267 6.304,-0.267 5.382,-0.267 4.433,-0.12 3.451,0.175 2.468,0.47 1.908,0.617 1.771,0.617 1.524,0.617 1.322,0.566 1.165,0.463 1.008,0.36 0.897,0.206 0.843,0 Z"
             style="fill:#231f20;fill-opacity:1;fill-rule:nonzero;stroke:none"
             id="path92" />
        </g>
        <g
           id="g94"
           transform="translate(468.126,300.4292)">
          <path
             d="m 0,0 3.574,12.862 c 0.207,0.728 0.364,1.367 0.475,1.915 0.11,0.551 0.164,0.962 0.164,1.236 0,0.564 -0.179,0.955 -0.534,1.176 -0.358,0.219 -1.077,0.35 -2.164,0.391 l 0.124,0.795 c 1.511,0.219 3.674,0.628 6.489,1.221 0.191,0 0.311,-0.024 0.359,-0.072 0.049,-0.048 0.074,-0.149 0.074,-0.3 0,-0.057 -0.011,-0.139 -0.032,-0.249 C 8.509,18.865 8.478,18.74 8.437,18.603 L 6.314,11.009 c 1.65,2.841 3.082,4.963 4.306,6.364 1.225,1.4 2.266,2.099 3.131,2.099 0.574,0 1.031,-0.175 1.361,-0.524 0.329,-0.352 0.493,-0.835 0.493,-1.454 0,-0.74 -0.226,-1.369 -0.678,-1.886 -0.456,-0.513 -1.006,-0.771 -1.65,-0.771 -0.494,0 -0.915,0.158 -1.268,0.473 -0.351,0.317 -0.559,0.737 -0.628,1.258 C 9.595,14.745 8.039,12.453 6.705,9.695 5.375,6.937 4.262,3.706 3.37,0 Z"
             style="fill:#231f20;fill-opacity:1;fill-rule:nonzero;stroke:none"
             id="path96" />
        </g>
        <g
           id="g98"
           transform="translate(455.6562,310.3022)">
          <path
             d="m 0,0 c 2.709,0.37 4.855,1.2 6.441,2.489 1.588,1.289 2.384,2.832 2.384,4.628 0,0.535 -0.134,0.95 -0.401,1.244 C 8.153,8.657 7.779,8.804 7.3,8.804 5.994,8.804 4.64,7.981 3.237,6.335 1.836,4.69 0.758,2.578 0,0 m 9.871,-4.772 0.637,-0.641 c -1.347,-1.68 -2.742,-2.918 -4.189,-3.71 -1.45,-0.794 -3.041,-1.189 -4.769,-1.189 -1.814,0 -3.234,0.583 -4.265,1.748 -1.028,1.166 -1.542,2.785 -1.542,4.856 0,1.592 0.342,3.19 1.028,4.794 0.685,1.605 1.663,3.088 2.924,4.445 1.317,1.386 2.733,2.47 4.242,3.253 1.507,0.781 2.951,1.172 4.323,1.172 1.261,0 2.232,-0.274 2.903,-0.823 0.672,-0.549 1.009,-1.328 1.009,-2.343 0,-1.877 -1.098,-3.513 -3.296,-4.903 -2.197,-1.39 -5.21,-2.339 -9.04,-2.847 -0.109,-0.576 -0.19,-1.103 -0.236,-1.583 -0.048,-0.481 -0.072,-0.878 -0.072,-1.194 0,-1.522 0.326,-2.66 0.98,-3.414 0.651,-0.755 1.628,-1.132 2.934,-1.132 0.989,0 2.034,0.298 3.134,0.899 1.098,0.598 2.197,1.468 3.295,2.612"
             style="fill:#231f20;fill-opacity:1;fill-rule:nonzero;stroke:none"
             id="path100" />
        </g>
        <g
           id="g102"
           transform="translate(430.5684,300.4014)">
          <path
             d="m 0,0 4.061,13.708 c 0.177,0.588 0.314,1.105 0.404,1.549 0.088,0.445 0.129,0.797 0.129,1.058 0,0.493 -0.182,0.844 -0.544,1.056 C 3.686,17.584 3.059,17.69 2.168,17.69 H 1.817 l 0.123,0.768 c 2.112,0.217 4.194,0.573 6.237,1.063 0.411,0.095 0.651,0.144 0.72,0.144 0.082,0 0.14,-0.028 0.174,-0.082 C 9.105,19.527 9.123,19.419 9.123,19.255 9.109,19.214 9.089,19.137 9.062,19.021 9.033,18.903 8.979,18.717 8.897,18.458 L 6.549,10.954 c 2.014,2.78 3.948,4.912 5.8,6.4 1.851,1.484 3.484,2.229 4.895,2.229 0.781,0 1.386,-0.199 1.811,-0.597 0.424,-0.396 0.637,-0.965 0.637,-1.704 0,-0.467 -0.051,-0.996 -0.154,-1.593 -0.102,-0.594 -0.25,-1.229 -0.441,-1.899 L 16.695,5.524 C 16.491,4.825 16.351,4.301 16.274,3.951 16.199,3.601 16.162,3.319 16.162,3.099 c 0,-0.316 0.075,-0.558 0.226,-0.73 0.15,-0.172 0.367,-0.257 0.654,-0.257 0.426,0 0.902,0.291 1.427,0.874 0.527,0.583 1.141,1.482 1.838,2.703 L 20.98,5.196 C 19.939,3.247 18.907,1.802 17.879,0.862 c -1.025,-0.941 -2.081,-1.41 -3.164,-1.41 -0.655,0 -1.173,0.202 -1.551,0.607 -0.376,0.404 -0.564,0.964 -0.564,1.679 0,0.316 0.046,0.72 0.143,1.214 0.097,0.493 0.247,1.098 0.456,1.812 l 2.2,8.1 c 0.194,0.769 0.33,1.374 0.413,1.819 0.083,0.446 0.124,0.806 0.124,1.08 0,0.453 -0.09,0.782 -0.268,0.987 -0.179,0.207 -0.452,0.309 -0.824,0.309 -0.685,0 -1.552,-0.418 -2.606,-1.255 C 11.19,14.968 10.063,13.787 8.855,12.264 7.677,10.769 6.668,9.099 5.832,7.254 4.991,5.408 4.189,2.989 3.422,0 Z"
             style="fill:#231f20;fill-opacity:1;fill-rule:nonzero;stroke:none"
             id="path104" />
        </g>
        <g
           id="g106"
           transform="translate(427.3906,327.2412)">
          <path
             d="M 0,0 C 0,0.562 0.223,1.065 0.669,1.509 1.111,1.954 1.607,2.177 2.155,2.177 2.746,2.177 3.253,1.961 3.687,1.529 4.117,1.099 4.334,0.59 4.334,0 c 0,-0.617 -0.21,-1.13 -0.628,-1.541 -0.418,-0.41 -0.934,-0.615 -1.551,-0.615 -0.574,0 -1.079,0.212 -1.508,0.635 C 0.216,-1.095 0,-0.589 0,0 m -4.433,-8.903 0.165,0.713 c 2.001,0.237 3.95,0.562 5.845,0.979 0.384,0.098 0.603,0.146 0.658,0.146 0.138,0 0.247,-0.048 0.329,-0.146 0.082,-0.097 0.124,-0.222 0.124,-0.374 0,-0.096 -0.014,-0.204 -0.042,-0.321 C 2.619,-8.023 2.578,-8.173 2.523,-8.353 l -4.048,-13.478 c -0.111,-0.398 -0.192,-0.729 -0.246,-0.996 -0.056,-0.267 -0.083,-0.49 -0.083,-0.669 0,-0.396 0.075,-0.701 0.232,-0.913 0.158,-0.213 0.377,-0.319 0.651,-0.319 0.409,0 0.934,0.285 1.571,0.853 0.638,0.568 1.321,1.367 2.046,2.394 l 0.638,-0.636 c -1.18,-1.678 -2.341,-2.952 -3.479,-3.824 -1.138,-0.875 -2.215,-1.31 -3.23,-1.31 -0.676,0 -1.185,0.195 -1.535,0.586 -0.351,0.393 -0.525,0.967 -0.525,1.721 0,0.386 0.051,0.841 0.154,1.371 0.103,0.529 0.292,1.267 0.569,2.215 l 2.702,9.558 0.02,0.062 c 0.178,0.697 0.269,1.157 0.269,1.377 0,0.532 -0.2,0.909 -0.591,1.129 -0.391,0.219 -1.083,0.329 -2.071,0.329"
             style="fill:#231f20;fill-opacity:1;fill-rule:nonzero;stroke:none"
             id="path108" />
        </g>
        <g
           id="g110"
           transform="translate(403.7832,324.6855)">
          <path
             d="m 0,0 -5.019,-18.687 c -0.15,-0.577 -0.274,-1.091 -0.37,-1.543 -0.096,-0.454 -0.14,-0.777 -0.14,-0.969 0,-0.603 0.308,-1.035 0.932,-1.296 0.624,-0.26 1.677,-0.39 3.158,-0.39 1.714,0 3.301,0.229 4.761,0.688 1.461,0.46 2.722,1.129 3.792,2.008 1.796,1.44 3.237,3.427 4.32,5.956 1.083,2.532 1.625,5.198 1.625,7.997 0,3.169 -0.786,5.585 -2.355,7.244 C 9.133,2.669 6.84,3.499 3.827,3.499 2.551,3.499 1.7,3.327 1.275,2.984 0.851,2.642 0.425,1.647 0,0 m -14.34,-24.284 0.267,0.85 h 0.206 c 1.317,0 2.273,0.24 2.869,0.718 0.597,0.48 1.101,1.473 1.512,2.979 l 5.269,19.614 c 0.138,0.505 0.234,0.927 0.288,1.263 0.055,0.336 0.083,0.627 0.083,0.874 0,0.656 -0.237,1.138 -0.71,1.447 -0.473,0.309 -1.296,0.504 -2.475,0.586 L -6.784,4.87 H 4.378 c 4.197,0 7.508,-1.08 9.929,-3.24 2.423,-2.161 3.633,-5.113 3.633,-8.859 0,-2.756 -0.675,-5.327 -2.025,-7.715 -1.352,-2.386 -3.302,-4.445 -5.856,-6.173 -1.577,-1.083 -3.326,-1.882 -5.246,-2.396 -1.922,-0.514 -4.075,-0.771 -6.462,-0.771 z"
             style="fill:#231f20;fill-opacity:1;fill-rule:nonzero;stroke:none"
             id="path112" />
        </g>
        <g
           id="g114"
           transform="translate(336.8398,252.7178)">
          <path
             d="M 0,0 C 24.114,0 43.662,19.551 43.662,43.662 43.662,67.775 24.114,87.325 0,87.325 h -52.659 c -24.114,0 -43.662,-19.55 -43.662,-43.663 C -96.321,19.551 -76.773,0 -52.659,0 Z"
             style="fill:#2350a9;fill-opacity:1;fill-rule:nonzero;stroke:none"
             id="path116" />
        </g>
        <g
           id="g118"
           transform="translate(326.9316,296.377)">
          <path
             d="m 0,0 c 0,-23.607 -19.14,-42.751 -42.75,-42.751 -23.611,0 -42.751,19.144 -42.751,42.751 0,23.608 19.14,42.75 42.751,42.75 C -19.14,42.75 0,23.608 0,0"
             style="fill:#ffffff;fill-opacity:1;fill-rule:nonzero;stroke:none"
             id="path120" />
        </g>
        <g
           id="g122"
           transform="translate(257.4165,296.377)">
          <path
             d="M 0,0 C 0,-11.376 7.106,-21.067 17.114,-24.944 V 24.942 C 7.106,21.067 0,11.375 0,0"
             style="fill:#2350a9;fill-opacity:1;fill-rule:nonzero;stroke:none"
             id="path124" />
        </g>
        <g
           id="g126"
           transform="translate(310.9458,296.377)">
          <path
             d="M 0,0 C 0,11.371 -7.104,21.062 -17.107,24.938 V -24.937 C -7.104,-21.064 0,-11.371 0,0"
             style="fill:#2350a9;fill-opacity:1;fill-rule:nonzero;stroke:none"
             id="path128" />
        </g>
      </g>
    </g>
  </g>
</svg>
